<svg
  xmlns="http://www.w3.org/2000/svg" viewBox="0 0 26 35">
  <rect x="5.15" y="27.84" width="15.63" height="1.3" fill="#9a9a9a"/>
  <rect x="5.15" y="17.69" width="15.63" height="1.3" fill="#9a9a9a"/>
  <rect x="5.15" y="21.08" width="15.63" height="1.3" fill="#9a9a9a"/>
  <rect x="5.15" y="24.46" width="15.63" height="1.3" fill="#9a9a9a"/>
  <circle cx="8.7" cy="4.38" r="0.1" fill="#9a9a9a"/>
  <path d="M8.64,4.23h.12a.59.59,0,0,1,0-.1l.1,0V4l-.1,0a.59.59,0,0,1,0-.1H8.64a.58.58,0,0,1,0,.1l-.1,0v.12l.1,0A.59.59,0,0,1,8.64,4.23Z" fill="#9a9a9a"/>
  <path d="M9,5.38l.11,0a1.62,1.62,0,0,0,.2-.54c0-.18-.16-.26-.35-.3l-.16.79Z" fill="#9a9a9a"/>
  <path d="M8.7,5.44c-.22,0-.41,0-.41.09s.19.09.41.09.41,0,.41-.09S8.92,5.44,8.7,5.44Z" fill="#9a9a9a"/>
  <path d="M8.84,4.7c0-.13-.08-.17-.14-.17s-.14,0-.14.17a5.25,5.25,0,0,0,.14.66A5.33,5.33,0,0,0,8.84,4.7Z" fill="#9a9a9a"/>
  <path d="M6.4,4.84a.33.33,0,0,1,0,.15.66.66,0,0,1-.05.22.72.72,0,0,0-.06.25c0,.16.1.28.3.36a1.12,1.12,0,0,0,.26.06c-.1,0-.37-.2-.37-.37a.67.67,0,0,1,.08-.26A.76.76,0,0,0,6.71,5a.24.24,0,0,0,0-.09.51.51,0,0,0-.17,0Z" fill="#9a9a9a"/>
  <path d="M5.63,5.44a.27.27,0,0,1-.06.17.17.17,0,0,0,0,.17.24.24,0,0,1,.12-.14.31.31,0,0,0,.09-.08h0a.43.43,0,0,0,0,.18A.29.29,0,0,0,5.85,6a.45.45,0,0,1,0-.15.29.29,0,0,1,0-.14.35.35,0,0,0,.05-.18.5.5,0,0,0-.07-.22.48.48,0,0,1-.07-.22V5a.57.57,0,0,0-.25.06l0,0a.28.28,0,0,0,.08.18A.24.24,0,0,1,5.63,5.44Z" fill="#9a9a9a"/>
  <path d="M6.21,4.87a.58.58,0,0,1,.3-.1h.1L6.44,4.7l-.1-.05a.18.18,0,0,0-.1,0c-.08,0-.15.07-.22.15a.45.45,0,0,1-.25.18.41.41,0,0,0-.26.12A.71.71,0,0,1,5.83,5,.71.71,0,0,0,6.21,4.87Z" fill="#9a9a9a"/>
  <path d="M7.22,6.4A1,1,0,0,1,7,6l0,0a.07.07,0,0,0,0,.06A.63.63,0,0,0,7.22,6.4Z" fill="#9a9a9a"/>
  <path d="M7.06,6.68A.28.28,0,0,0,7,6.9a.68.68,0,0,1,.52-.22h.07a.26.26,0,0,0-.24-.11A.37.37,0,0,0,7.06,6.68Z" fill="#9a9a9a"/>
  <path d="M6.88,6.12H6.8c-.14,0-.28.06-.28.23a.26.26,0,0,0,.13.24.34.34,0,0,1,.26-.11.65.65,0,0,1,.3.08l.13,0h0A.94.94,0,0,1,6.88,6.12Zm-.13.29a0,0,0,0,1,0-.1,0,0,0,0,1,0,.1A0,0,0,0,1,6.75,6.41Z" fill="#9a9a9a"/>
  <path d="M8.29,5.41l.11,0,.21,0-.16-.79c-.19,0-.35.12-.35.3a1.62,1.62,0,0,0,.2.54Z" fill="#9a9a9a"/>
  <path d="M7.67,5.91a1.31,1.31,0,0,0,.81-.26H8.4a.3.3,0,0,1-.13-.05A2.23,2.23,0,0,1,7.67,5.91Z" fill="#9a9a9a"/>
  <circle cx="7.34" cy="5.07" r="0.06" fill="#9a9a9a"/>
  <path d="M7.3,5h.08a.4.4,0,0,1,0-.07l.07,0V4.84l-.07,0a.39.39,0,0,1,0-.07H7.3a.39.39,0,0,1,0,.07l-.07,0v.08l.07,0A.4.4,0,0,1,7.3,5Z" fill="#9a9a9a"/>
  <path d="M7.14,5.74h.14L7.17,5.2c-.13,0-.23.08-.23.2a1,1,0,0,0,.13.35Z" fill="#9a9a9a"/>
  <ellipse cx="7.34" cy="5.84" rx="0.27" ry="0.06" fill="#9a9a9a"/>
  <path d="M7.54,5.74l.07,0a1,1,0,0,0,.13-.35c0-.12-.1-.17-.23-.2l-.1.52Z" fill="#9a9a9a"/>
  <path d="M7.43,5.29c0-.09-.05-.11-.09-.11s-.09,0-.09.11a3.48,3.48,0,0,0,.09.43A3.51,3.51,0,0,0,7.43,5.29Z" fill="#9a9a9a"/>
  <path d="M6.74,6.82A.49.49,0,0,0,7,6.75a.3.3,0,0,1,.11-.14h0a.59.59,0,0,0-.2,0,.64.64,0,0,1-.22.05.32.32,0,0,1-.21-.08A.29.29,0,0,0,6.74,6.82Z" fill="#9a9a9a"/>
  <path d="M7.63,6.71h0a.5.5,0,0,0,.19.39h0a.8.8,0,0,0,0-.14c0-.12-.16-.22-.2-.25Z" fill="#9a9a9a"/>
  <path d="M7.23,9.67l0-.16a.5.5,0,0,1-.08-.19v0c0,.06,0,.13,0,.19a.55.55,0,0,1-.08.18H7v0a.55.55,0,0,1,0-.19v0a.48.48,0,0,1-.13.09h0A.56.56,0,0,0,7,10,.57.57,0,0,0,7.23,9.67Z" fill="#9a9a9a"/>
  <path d="M6.82,9.71l.05-.17a.54.54,0,0,1-.06-.23,2.31,2.31,0,0,1-.07.22.57.57,0,0,1-.1.18h0v0a.6.6,0,0,1,0-.2l.06-.15a.6.6,0,0,1-.18.13l0,.12a.6.6,0,0,0,0,.48A.59.59,0,0,0,6.82,9.71Z" fill="#9a9a9a"/>
  <path d="M6.38,9.69l.1-.18h0v0a.41.41,0,0,1,0-.13l-.07.12a.64.64,0,0,1-.15.17h0v0a.69.69,0,0,1,.08-.21l.14-.21a.61.61,0,0,1,0-.12.71.71,0,0,1-.19.13,2.53,2.53,0,0,0-.18.26A.7.7,0,0,0,6,10,.67.67,0,0,0,6.38,9.69Z" fill="#9a9a9a"/>
  <path d="M5.86,9.27l.07-.07A.6.6,0,0,1,6,9a2.7,2.7,0,0,0-.35.31.72.72,0,0,0-.22.5h0a.69.69,0,0,0,.49-.24,2.82,2.82,0,0,0,.26-.31A.57.57,0,0,1,6,9.3H6l0,0a.69.69,0,0,1-.2.15h0v0A.75.75,0,0,1,5.86,9.27Z" fill="#9a9a9a"/>
  <path d="M5.49,8.86,5.22,9a.78.78,0,0,0-.39.42.55.55,0,0,0,.18,0,.82.82,0,0,0,.4-.11A2.64,2.64,0,0,0,6,8.89a.73.73,0,0,1-.25.06l-.23.14a.72.72,0,0,1-.25.09h0A.83.83,0,0,1,5.49,9l.13-.06h0l-.06,0h0Z" fill="#9a9a9a"/>
  <path d="M5,9a3.13,3.13,0,0,0,.47-.16.65.65,0,0,1,.13-.18l-.33.1a1.39,1.39,0,0,1-.31,0H5a1,1,0,0,1,.29-.13,3.3,3.3,0,0,1,.5-.09l.07,0H5.71a.74.74,0,0,1-.22,0,3.23,3.23,0,0,0-.55.1.84.84,0,0,0-.51.33A.68.68,0,0,0,4.8,9,1,1,0,0,0,5,9Z" fill="#9a9a9a"/>
  <path d="M4.59,7.42a3.25,3.25,0,0,0,1,.17h.11l-.08,0-.09-.06A3.88,3.88,0,0,1,5,7.33a1,1,0,0,1-.33-.17h0A1.26,1.26,0,0,1,5,7.21l.42.16A.76.76,0,0,1,5.3,7.2,4.14,4.14,0,0,0,4.74,7a1.32,1.32,0,0,0-.4-.07A.78.78,0,0,0,4,7,.91.91,0,0,0,4.59,7.42Z" fill="#9a9a9a"/>
  <path d="M4.58,6.72a3.71,3.71,0,0,0,.7.4V7h.08L5,6.79a1,1,0,0,1-.26-.27v0h0a1.33,1.33,0,0,1,.33.18,4.54,4.54,0,0,1,.4.32l.16,0a4.37,4.37,0,0,0-.76-.7,1.16,1.16,0,0,0-.66-.25h0A1,1,0,0,0,4.58,6.72Z" fill="#9a9a9a"/>
  <path d="M5.51,6.79a.73.73,0,0,1-.08-.29,1.11,1.11,0,0,1-.47-.8,5.68,5.68,0,0,0,.48.67v0a.46.46,0,0,1,.06-.15A5.44,5.44,0,0,1,4.82,5a.48.48,0,0,0-.23.35,1,1,0,0,0,.26.82A4.42,4.42,0,0,0,5.51,6.79Z" fill="#9a9a9a"/>
  <path d="M5.59,6.15a.29.29,0,0,0-.1.19.69.69,0,0,0,.2.62,2.24,2.24,0,0,0,.42.36A.55.55,0,0,1,6,7.06L5.88,7a.6.6,0,0,1-.19-.37v0a2.31,2.31,0,0,0,.28.3l0,0a.36.36,0,0,1,.07-.14L6,6.69A2.21,2.21,0,0,1,5.59,6.15Z" fill="#9a9a9a"/>
  <path d="M5.32,7.08a.7.7,0,0,0,.31.41,2.87,2.87,0,0,0,.43.21v0h0l.07-.06-.3-.16a.56.56,0,0,1-.16-.15h0a.57.57,0,0,1,.21.08,2.68,2.68,0,0,1,.3.21h0l.1,0a2.94,2.94,0,0,0-.49-.38.71.71,0,0,0-.37-.1Z" fill="#9a9a9a"/>
  <path d="M5.25,7.74A.64.64,0,0,0,5.66,8a2.57,2.57,0,0,0,.47,0l.12,0-.08-.06-.36,0a.54.54,0,0,1-.19-.08h.21l.3.08,0,0a.39.39,0,0,1,0-.11l-.34-.09H5.59A.63.63,0,0,0,5.25,7.74Z" fill="#9a9a9a"/>
  <path d="M5.71,8.44h0l.35,0h0A.36.36,0,0,1,6,8.29h-.2l-.16,0h0a.55.55,0,0,1,.2-.05H6a.34.34,0,0,1,.08-.13H5.74a.68.68,0,0,0-.45.21A.67.67,0,0,0,5.71,8.44Z" fill="#9a9a9a"/>
  <path d="M5.55,8.86a.55.55,0,0,0,.2,0A.65.65,0,0,0,6,8.83l.17-.09a.33.33,0,0,1,0-.14L6,8.69a.54.54,0,0,1-.18,0h0A.53.53,0,0,1,6,8.62l.21-.08a.31.31,0,0,1,.07-.1l-.11,0-.29.11A.62.62,0,0,0,5.55,8.86Z" fill="#9a9a9a"/>
  <path d="M6.28,8.89l.06-.06-.14,0,0,0A.59.59,0,0,0,6,9.24H6a.59.59,0,0,0,.41-.18l.14-.15a.33.33,0,0,1,0-.12l-.1,0-.11.12a.52.52,0,0,1-.16.11h0V9A.54.54,0,0,1,6.28,8.89Z" fill="#9a9a9a"/>
  <path d="M6.62,9.1A.34.34,0,0,1,6.55,9l0,0a.56.56,0,0,0,0,.44.56.56,0,0,0,.33-.29l.05-.11,0,0a.36.36,0,0,1-.12,0,.52.52,0,0,1-.09.12h0v0A.49.49,0,0,1,6.62,9.1Z" fill="#9a9a9a"/>
  <path d="M7.17,9.21h0l-.08,0A.49.49,0,0,1,7,9.3v0a.53.53,0,0,1,0-.18H7A.33.33,0,0,1,6.94,9V9l0,.11a.53.53,0,0,0,0,.42A.53.53,0,0,0,7.17,9.21Z" fill="#9a9a9a"/>
  <path d="M7.37,9l0,0a.33.33,0,0,1-.07.15l-.06.06a.48.48,0,0,0,.09.32.51.51,0,0,0,.21-.36v0l-.06,0L7.41,9v.1a.52.52,0,0,1,0,.15v0a.54.54,0,0,1,0-.16A1.16,1.16,0,0,1,7.37,9Z" fill="#9a9a9a"/>
  <path d="M7.86,7.17a.49.49,0,0,0,.1.26H8a.32.32,0,0,0,.09-.21A.41.41,0,0,0,7.89,7h0a.82.82,0,0,1,0,.12A.76.76,0,0,0,7.86,7.17Z" fill="#9a9a9a"/>
  <path d="M7.9,6.83c0,.06.06.14.17.23h0a.35.35,0,0,0,.07-.19c0-.09-.12-.19-.19-.24l0,0h0a.57.57,0,0,1,0,.11A.59.59,0,0,0,7.9,6.83Z" fill="#9a9a9a"/>
  <path d="M8.49,6.88h0a.38.38,0,0,1,0,.09.38.38,0,0,0-.06.2.46.46,0,0,0,.14.27h0a.35.35,0,0,0,.13-.22.56.56,0,0,0-.16-.33Z" fill="#9a9a9a"/>
  <path d="M8.2,6.83c0,.1.12.19.14.21h0a.29.29,0,0,0,.09-.2.43.43,0,0,0-.21-.33h0a.26.26,0,0,1,0,.08.69.69,0,0,1,0,.14A.51.51,0,0,0,8.2,6.83Z" fill="#9a9a9a"/>
  <path d="M8.18,7h0a.48.48,0,0,0-.07.24.38.38,0,0,0,.12.25h0c.08-.12.11-.18.11-.23A.27.27,0,0,0,8.23,7l0,0Z" fill="#9a9a9a"/>
  <path d="M8.7,7.32h0l0,0a.45.45,0,0,0-.11.28.34.34,0,0,0,.08.19l.05.09h0l.06-.09a.34.34,0,0,0,.08-.19.45.45,0,0,0-.11-.28Z" fill="#9a9a9a"/>
  <path d="M8.39,7.35h0a.43.43,0,0,0-.12.28.38.38,0,0,0,.07.21l0,.07h0l.06-.09a.31.31,0,0,0,.08-.19.33.33,0,0,0-.09-.21Z" fill="#9a9a9a"/>
  <path d="M8,7.8a.82.82,0,0,1,0,.11h0l.07-.09a.29.29,0,0,0,.09-.21.41.41,0,0,0-.09-.2l0,0h0A.35.35,0,0,0,8,7.62.5.5,0,0,0,8,7.8Z" fill="#9a9a9a"/>
  <circle cx="6.85" cy="11.74" r="0.05" transform="translate(-6.29 8.29) rotate(-45.03)" fill="#9a9a9a"/>
  <path d="M6.76,11.71h0l0,0,0,0v0h0l0,0,0,0v0Z" fill="#9a9a9a"/>
  <path d="M6.18,11.13h0l0,0,0,0v0h0l0,0,0,0v0Z" fill="#9a9a9a"/>
  <path d="M5.17,10.12h0l0,0,0,0v0h0l0,0,0,0v0Z" fill="#9a9a9a"/>
  <path d="M6.06,11a.07.07,0,1,0,.1-.1l-.9-.85-.05.05Z" fill="#9a9a9a"/>
  <path d="M5.18,9.94s-.09,0-.11,0a.07.07,0,0,1,0,0h.05l0,0h0a0,0,0,0,0,0,0h0a0,0,0,0,0,0,0H5.07l0,0h0a.15.15,0,0,0,0-.19A.2.2,0,0,0,5,9.53a.34.34,0,0,1,0,.16s0,0,0,0l0,0a0,0,0,0,1,0,0H5s0,0,0,0,0,0,0,0a.15.15,0,0,1,0-.06,0,0,0,0,1,0,0h0s0,0,0,0a0,0,0,0,0,0,0s0,0,0,0h0l0,0s0,0,0,0v0s0,0,0,0,0,0,0,0h0s0,0,0,0l0,0h0a0,0,0,0,0,0,0s0,0,0,0h0s0,0,0,0a0,0,0,0,0,0,0,0,0,0,0,1,0,0l.06,0s0,0,0,0,0,0,0,0h0a0,0,0,0,1,0,0,0,0,0,0,1,0,0l0,0h0a.34.34,0,0,1-.16,0,.2.2,0,0,0,.11.16l.08,0h0a0,0,0,0,0,0,0H5l0,0H5a.08.08,0,0,0,0-.05h0s0,.08,0,.11.09,0,.1,0S5.21,10,5.18,9.94Zm-.32-.17h0a0,0,0,0,0,0,0v0l0,0h0l0,0,0,0v0l0,0h0a.2.2,0,0,0,0,0v0ZM5,10H4.85A.18.18,0,0,0,4.94,10a.1.1,0,0,0,0,0h0l0,0a.08.08,0,0,0,0,0H5Z" fill="#9a9a9a"/>
  <path d="M7.31,10.86H7.08l-.44.32a.12.12,0,0,1,.1.11.12.12,0,0,1,0,0,2.66,2.66,0,0,0,.53-.26A.65.65,0,0,1,7.31,10.86Z" fill="#9a9a9a"/>
  <path d="M10.31,10.86h-.23a.62.62,0,0,1,0,.2,2.63,2.63,0,0,0,.57.28.17.17,0,0,1,0-.07.16.16,0,0,1,0-.1Z" fill="#9a9a9a"/>
  <path d="M11.31,10.81c0,.12,0,.23,0,.34h.05l.29,0A.45.45,0,0,0,11.31,10.81Z" fill="#9a9a9a"/>
  <path d="M11.11,11.15h0c0-.11,0-.22,0-.34a.45.45,0,0,0-.35.36l.29,0Z" fill="#9a9a9a"/>
  <circle cx="11.63" cy="11.27" r="0.05" fill="#9a9a9a"/>
  <circle cx="11.21" cy="11.24" r="0.05" fill="#9a9a9a"/>
  <circle cx="11.21" cy="10.97" r="0.05" fill="#9a9a9a"/>
  <circle cx="11.21" cy="11.11" r="0.05" fill="#9a9a9a"/>
  <circle cx="11.35" cy="11.25" r="0.05" fill="#9a9a9a"/>
  <circle cx="11.49" cy="11.25" r="0.05" fill="#9a9a9a"/>
  <circle cx="10.8" cy="11.27" r="0.05" fill="#9a9a9a"/>
  <circle cx="11.07" cy="11.25" r="0.05" fill="#9a9a9a"/>
  <circle cx="10.93" cy="11.25" r="0.05" fill="#9a9a9a"/>
  <circle cx="11.21" cy="10.84" r="0.05" fill="#9a9a9a"/>
  <path d="M11.34,10.61v-.06l-.1,0a.6.6,0,0,1,0-.1h-.12a.6.6,0,0,1,0,.1l-.1,0v.12l.1,0a.6.6,0,0,1,0,.1h.12a.6.6,0,0,1,0-.1l.1,0Z" fill="#9a9a9a"/>
  <path d="M11.64,11.36l-.43,0-.43,0a.45.45,0,0,0,.11.2A.12.12,0,0,1,11,11.5a.14.14,0,0,1,.1,0,.06.06,0,0,1,0,0l0,0a.24.24,0,0,0,0,.06.12.12,0,0,1,0,.08v0l.14,0a.16.16,0,0,1,0-.06.13.13,0,0,1,.05-.09.26.26,0,0,0,0-.07v0h0a.16.16,0,0,1,.07.11.16.16,0,0,1,0,.09h0l.06,0a.14.14,0,0,1,0-.05.12.12,0,0,1,0-.07l0,0,0,0,0,0a.15.15,0,0,1,.1,0,.09.09,0,0,1,.06,0A.44.44,0,0,0,11.64,11.36Z" fill="#9a9a9a"/>
  <path d="M11.28,11.48a.26.26,0,0,1,0,.08h0a.1.1,0,0,0,0,.07.09.09,0,0,0,0,.07l0,0h0s.07,0,.07-.08a.13.13,0,0,0,0-.07h0A.13.13,0,0,0,11.28,11.48Z" fill="#9a9a9a"/>
  <path d="M8.5,11.26a.4.4,0,0,1,0-.12h0a.64.64,0,0,1,0-.1l-.05-.11a.51.51,0,0,1-.33.31.22.22,0,0,0,.2.09A.23.23,0,0,0,8.5,11.26Z" fill="#9a9a9a"/>
  <path d="M6.78,11.58s0,0-.13-.18h0a.15.15,0,0,1,0,.06.12.12,0,0,1,0,.1l0,0a.32.32,0,0,0,.1.06Z" fill="#9a9a9a"/>
  <path d="M6.27,11.24H6.4l.08,0h0v0a1.23,1.23,0,0,0-.22-.16l-.08.08.05.09Z" fill="#9a9a9a"/>
  <path d="M7.35,10.79h0a.67.67,0,0,1,.06-.21H7.29l-.14,0a.67.67,0,0,0-.2.25.65.65,0,0,0,.23,0A.5.5,0,0,0,7.35,10.79Z" fill="#9a9a9a"/>
  <path d="M7.3,10.51h.13a.61.61,0,0,1,.11-.16.39.39,0,0,1-.18-.05,1.15,1.15,0,0,1-.32.06A.38.38,0,0,0,7.3,10.51Z" fill="#9a9a9a"/>
  <path d="M7.61,11.06a.5.5,0,0,1,0-.14.51.51,0,0,1,0-.11l-.18,0h0a.59.59,0,0,0,0,.39A.67.67,0,0,0,7.61,11.06Z" fill="#9a9a9a"/>
  <path d="M7.64,10.92a.38.38,0,0,0,.11.28,1.11,1.11,0,0,1,.11-.31.39.39,0,0,1,0-.19.58.58,0,0,1-.18.09A.45.45,0,0,0,7.64,10.92Z" fill="#9a9a9a"/>
  <path d="M8.4,10.55h0a1,1,0,0,0-.18.2.64.64,0,0,1,.19.27.42.42,0,0,0,.07-.13v0a.67.67,0,0,1,0-.2.45.45,0,0,1,0-.08Z" fill="#9a9a9a"/>
  <path d="M6.18,6.72A.32.32,0,0,0,6,7a.54.54,0,0,0,.15.35,1.08,1.08,0,0,0,.33.25h0a.42.42,0,0,0-.16,0l-.12,0a.35.35,0,0,0-.13.09.34.34,0,0,0,0,.15A.37.37,0,0,0,6.37,8h0a.33.33,0,0,0-.24.08A.3.3,0,0,0,6,8.23a.31.31,0,0,0,.1.12.28.28,0,0,0,.17,0H6.4a.32.32,0,0,0-.18.2.29.29,0,0,0,0,.15h0a.3.3,0,0,0,.15,0h0a.32.32,0,0,0,.23-.11h0a.32.32,0,0,0,0,.25.31.31,0,0,0,.07.13h0a.3.3,0,0,0,.13,0A.34.34,0,0,0,7,8.84H7A.33.33,0,0,0,7,9.09a.29.29,0,0,0,.11.09.3.3,0,0,0,.11-.08.33.33,0,0,0,.07-.24h0a.33.33,0,0,0,.14.2.44.44,0,0,0,.17.06V8.32H7.6a.45.45,0,0,1-.43.21c-.24,0-.48-.13-.48-.38a.79.79,0,0,1,.11-.38.44.44,0,0,0,.07-.19c0-.18-.14-.28-.29-.4A1,1,0,0,1,6.18,6.72Z" fill="#9a9a9a"/>
  <path d="M8,7.83A.37.37,0,0,1,7.64,8a.39.39,0,0,1-.27-.12.24.24,0,0,0,0,.22.31.31,0,0,0,.26.13h0V8.08H8A.31.31,0,0,0,8,7.83Z" fill="#9a9a9a"/>
  <path d="M7.66,9.15l-.08,0h0a.65.65,0,0,1-.09.23.48.48,0,0,0,.17.22Z" fill="#9a9a9a"/>
  <path d="M8.93,10.56a.46.46,0,0,0-.22.22h0a.46.46,0,0,0-.22-.22.39.39,0,0,0,0,.07,1,1,0,0,0,.24.55,1,1,0,0,0,.24-.55A.39.39,0,0,0,8.93,10.56Z" fill="#9a9a9a"/>
  <path d="M7.66,10.28V10a1.33,1.33,0,0,1-.39.16.39.39,0,0,0,.28.13Z" fill="#9a9a9a"/>
  <path d="M7.66,10.34l-.08,0a.73.73,0,0,0-.18.39h0a.75.75,0,0,0,.39-.13.26.26,0,0,0,.07-.1A.26.26,0,0,1,7.66,10.34Z" fill="#9a9a9a"/>
  <path d="M8.27,10.55H8A.36.36,0,0,0,8,11,1.26,1.26,0,0,1,8.27,10.55Z" fill="#9a9a9a"/>
  <path d="M8.7,11.25h0l0,0a.71.71,0,0,1-.1-.13v.05a.44.44,0,0,0,0,.26.3.3,0,0,0,.1.12.3.3,0,0,0,.1-.12.44.44,0,0,0,0-.26v-.05a.74.74,0,0,1-.1.13Z" fill="#9a9a9a"/>
  <path d="M7.66,9.66l-.1-.08a2.16,2.16,0,0,1-.09.47l.19-.1Z" fill="#9a9a9a"/>
  <path d="M11.07,11.49a.11.11,0,0,0-.07,0h0a.09.09,0,0,0-.06,0,.09.09,0,0,0,0,.07l0,0h0s.06,0,.06-.06a.09.09,0,0,0,0-.06h0A.21.21,0,0,1,11.07,11.49Z" fill="#9a9a9a"/>
  <path d="M11.47,11.56a.07.07,0,0,0,.07.07h0a.07.07,0,0,0,0-.08s0-.08-.06-.08h0l-.07,0,0,.06h0A.1.1,0,0,0,11.47,11.56Z" fill="#9a9a9a"/>
  <path d="M7.5,13a.42.42,0,0,0,.32-.12.39.39,0,0,1-.24-.36c0-.23.26-.47.5-.67l.15-.13a4.32,4.32,0,0,0,.3-.33l0-.07a1.43,1.43,0,0,1-.74.41.43.43,0,0,1-.31-.11.25.25,0,0,0,0,.33h0a.82.82,0,0,0-.41.63A.41.41,0,0,0,7.5,13Zm0-1.32s.07.13.26.14C7.55,11.89,7.45,11.79,7.47,11.68Zm.16.36a.83.83,0,0,0-.25.53.47.47,0,0,0,0,.21.27.27,0,0,1-.13-.24A.72.72,0,0,1,7.63,12Z" fill="#9a9a9a"/>
  <path d="M8.47,13a.33.33,0,0,0,.06-.12h-.1a.23.23,0,0,1-.18-.07.35.35,0,0,1-.07-.23A1.48,1.48,0,0,1,8.37,12a4.71,4.71,0,0,0,.22-.54l0,0c-.06.08-.14.17-.23.26a1.77,1.77,0,0,0-.6,1s0,0,0,.05a.34.34,0,0,0,.12.08h0l0,0L7.79,13a.45.45,0,0,0,.4.21A.34.34,0,0,0,8.47,13Zm-.56-.38a.78.78,0,0,1,.19-.48,1.36,1.36,0,0,0-.12.47.37.37,0,0,0,.12.29A.29.29,0,0,1,7.92,12.66Z" fill="#9a9a9a"/>
  <path d="M8.7,13.33a.56.56,0,0,0,.24-.21l0,0a.36.36,0,0,1-.07-.15v0H9a.83.83,0,0,0,0-.15,2.5,2.5,0,0,0-.13-.66,5.67,5.67,0,0,1-.13-.55l-.05,0H8.67l-.05,0a5.52,5.52,0,0,1-.13.55,2.51,2.51,0,0,0-.13.66.81.81,0,0,0,0,.15h.21v0a.37.37,0,0,1-.07.15l0,0A.56.56,0,0,0,8.7,13.33Zm0-1.19a4.49,4.49,0,0,1,.05.62.67.67,0,0,1-.05.32.67.67,0,0,1-.05-.32A4.51,4.51,0,0,1,8.7,12.14Z" fill="#9a9a9a"/>
  <path d="M7.31,6.42a1,1,0,0,0,.22.14,1.88,1.88,0,0,1-.13-.23.8.8,0,0,0,.27.17,1.25,1.25,0,0,0-.08-.2,1,1,0,0,0,.25.17.71.71,0,0,0-.1-.21A1,1,0,0,0,8,6.41a1.13,1.13,0,0,0,0-.17.49.49,0,0,0,.4.22.42.42,0,0,0,.21-.06.8.8,0,0,1-.49-.17.42.42,0,0,0,.2-.14H8.12L8,6.09a.44.44,0,0,0,.3-.19A3.24,3.24,0,0,1,7.53,6a4.39,4.39,0,0,1-.54,0A1,1,0,0,0,7.31,6.42ZM7.5,6.1h0a.49.49,0,0,0-.26.09h0a.18.18,0,0,1-.06-.13h0A2.17,2.17,0,0,0,7.5,6.1Z" fill="#9a9a9a"/>
  <path d="M7.89,6.43v.08c.08.07.2.18.25.23a.51.51,0,0,0,0-.26L8,6.42v.07L8,6.46Z" fill="#9a9a9a"/>
  <path d="M7.56,6.51a1,1,0,0,0,.29.31s0-.06,0-.1a.5.5,0,0,0,0-.19l0,0-.11-.06v0l0,.1-.1,0Z" fill="#9a9a9a"/>
  <path d="M8.54,7.77h0A.49.49,0,0,0,8.4,8a.34.34,0,0,0,0,.05h.27a.45.45,0,0,0-.11-.26Z" fill="#9a9a9a"/>
  <path d="M8.23,7.78h0A.57.57,0,0,0,8,8.07h.32a.53.53,0,0,0-.12-.29Z" fill="#9a9a9a"/>
  <path d="M4.79,8.49a3.28,3.28,0,0,0,.59-.07h0l-.12-.08,0,0H5a.73.73,0,0,1-.26,0h0A.88.88,0,0,1,5,8.21H5.3a.73.73,0,0,1,.2-.13l-.6,0H4.77a.9.9,0,0,0-.61.22.8.8,0,0,0,.58.21Z" fill="#9a9a9a"/>
  <path d="M5.26,8h.26a.71.71,0,0,1-.23-.15h0l-.3,0a1,1,0,0,1-.33-.1h0l.16,0H5l.19,0,0,0,0,0,.09-.05a4.85,4.85,0,0,0-.6-.11H4.54A.88.88,0,0,0,4,7.65.86.86,0,0,0,4.65,8,5.26,5.26,0,0,0,5.26,8Z" fill="#9a9a9a"/>
  <path d="M6.52,11.38h0l-.07,0h0l-.07,0a.1.1,0,0,0,0,.06.06.06,0,0,0,0,.05l0,0,.06,0a.1.1,0,0,0,0-.08h0Z" fill="#9a9a9a"/>
  <path d="M6.6,11.37l.06,0a.06.06,0,0,0,0,0,.07.07,0,0,0-.08-.06h0a.09.09,0,0,0-.08.06h0a.13.13,0,0,0-.07.05h.1l.06,0Z" fill="#9a9a9a"/>
  <path d="M6.34,11.38a.09.09,0,0,0,.05-.06h0l.07,0-.06,0H6.29a.07.07,0,0,0,0,.08.06.06,0,0,0,.06,0Z" fill="#9a9a9a"/>
  <path d="M10.5,5.89a1.12,1.12,0,0,0,.26-.06c.2-.08.3-.2.3-.36A.72.72,0,0,0,11,5.22.66.66,0,0,1,10.95,5a.33.33,0,0,1,0-.15l-.11,0a.51.51,0,0,0-.17,0,.25.25,0,0,0,0,.09.76.76,0,0,0,.09.3.67.67,0,0,1,.08.26C10.87,5.69,10.6,5.84,10.5,5.89Z" fill="#9a9a9a"/>
  <path d="M11.9,5.13l0,0A.57.57,0,0,0,11.62,5v0a.48.48,0,0,1-.07.22.5.5,0,0,0-.07.22.35.35,0,0,0,.05.18.29.29,0,0,1,0,.14.44.44,0,0,1,0,.15.29.29,0,0,0,.14-.24.43.43,0,0,0,0-.18h0a.32.32,0,0,0,.09.08.24.24,0,0,1,.12.14.17.17,0,0,0,0-.17.28.28,0,0,1-.06-.17.24.24,0,0,1,.06-.13A.29.29,0,0,0,11.9,5.13Z" fill="#9a9a9a"/>
  <path d="M11.18,4.87a.71.71,0,0,0,.38.12.72.72,0,0,1,.31.06.41.41,0,0,0-.26-.12.45.45,0,0,1-.25-.18c-.07-.08-.13-.15-.22-.15a.18.18,0,0,0-.1,0L11,4.7l-.18.08h.1A.58.58,0,0,1,11.18,4.87Z" fill="#9a9a9a"/>
  <path d="M10.18,6.4a.63.63,0,0,0,.3-.32.07.07,0,0,0,0-.06l0,0A1,1,0,0,1,10.18,6.4Z" fill="#9a9a9a"/>
  <path d="M10.4,6.9a.28.28,0,0,0-.07-.21.37.37,0,0,0-.28-.11.26.26,0,0,0-.24.11h.07A.68.68,0,0,1,10.4,6.9Z" fill="#9a9a9a"/>
  <path d="M10.59,6.11h-.08a.94.94,0,0,1-.49.41h0l.13,0a.64.64,0,0,1,.3-.08.34.34,0,0,1,.26.11.26.26,0,0,0,.13-.24C10.88,6.17,10.73,6.11,10.59,6.11Zm.05.3a0,0,0,1,1,0-.1,0,0,0,0,1,0,.1A0,0,0,0,1,10.65,6.41Z" fill="#9a9a9a"/>
  <path d="M9,5.64H8.91a1.31,1.31,0,0,0,.81.26,2.24,2.24,0,0,1-.6-.32A.3.3,0,0,1,9,5.64Z" fill="#9a9a9a"/>
  <circle cx="10.05" cy="5.07" r="0.06" fill="#9a9a9a"/>
  <path d="M10,5h.08a.4.4,0,0,1,0-.07l.07,0V4.84l-.07,0a.39.39,0,0,1,0-.07H10a.39.39,0,0,1,0,.07l-.07,0v.08l.07,0A.4.4,0,0,1,10,5Z" fill="#9a9a9a"/>
  <path d="M10.25,5.74l.07,0a1,1,0,0,0,.13-.35c0-.12-.1-.17-.23-.2l-.1.52Z" fill="#9a9a9a"/>
  <ellipse cx="10.05" cy="5.84" rx="0.27" ry="0.06" fill="#9a9a9a"/>
  <path d="M9.85,5.74H10l-.1-.52c-.13,0-.23.08-.23.2a1,1,0,0,0,.13.35Z" fill="#9a9a9a"/>
  <path d="M10.14,5.29c0-.09-.05-.11-.09-.11s-.09,0-.09.11a3.44,3.44,0,0,0,.09.43A3.39,3.39,0,0,0,10.14,5.29Z" fill="#9a9a9a"/>
  <path d="M10.54,6.66a.58.58,0,0,0-.2,0h0a.3.3,0,0,1,.11.14.49.49,0,0,0,.23.07A.29.29,0,0,0,11,6.63a.33.33,0,0,1-.21.08A.64.64,0,0,1,10.54,6.66Z" fill="#9a9a9a"/>
  <path d="M9.56,7a.75.75,0,0,0,0,.14h0a.5.5,0,0,0,.19-.39h0S9.56,6.85,9.56,7Z" fill="#9a9a9a"/>
  <path d="M10.49,9.59h0a.48.48,0,0,1-.13-.09v0a.55.55,0,0,1,0,.19v0h0a.54.54,0,0,1-.08-.18c0-.07,0-.13,0-.19v0a.5.5,0,0,1-.08.19l0,.16a.56.56,0,0,0,.26.38A.56.56,0,0,0,10.49,9.59Z" fill="#9a9a9a"/>
  <path d="M10.89,10.08a.6.6,0,0,0,0-.48l0-.12a.6.6,0,0,1-.18-.13l.06.15a.61.61,0,0,1,0,.2v0h0a.57.57,0,0,1-.1-.18,2.33,2.33,0,0,1-.07-.22.52.52,0,0,1-.06.23l.05.17A.59.59,0,0,0,10.89,10.08Z" fill="#9a9a9a"/>
  <path d="M11.16,9.24A.71.71,0,0,1,11,9.11a.71.71,0,0,1,0,.12l.14.21a.67.67,0,0,1,.08.21v0h0a.62.62,0,0,1-.15-.17L11,9.36a.45.45,0,0,1,0,.13v0h0l.1.18a.67.67,0,0,0,.42.34.69.69,0,0,0-.1-.53A2.58,2.58,0,0,0,11.16,9.24Z" fill="#9a9a9a"/>
  <path d="M12,9.83a.72.72,0,0,0-.22-.5A2.71,2.71,0,0,0,11.42,9a.61.61,0,0,1,0,.19l.07.07a.76.76,0,0,1,.14.2v0h0a.68.68,0,0,1-.2-.15l0,0h0a.56.56,0,0,1-.16,0,2.8,2.8,0,0,0,.26.31.69.69,0,0,0,.49.24Z" fill="#9a9a9a"/>
  <path d="M12.56,9.42A.78.78,0,0,0,12.17,9l-.27-.13v0h0l-.06,0h0L11.9,9a.84.84,0,0,1,.21.16h0a.72.72,0,0,1-.25-.09l-.23-.14a.73.73,0,0,1-.25-.06,2.64,2.64,0,0,0,.61.44.82.82,0,0,0,.4.11A.56.56,0,0,0,12.56,9.42Z" fill="#9a9a9a"/>
  <path d="M13,8.9a.84.84,0,0,0-.51-.33,3.23,3.23,0,0,0-.55-.1.73.73,0,0,1-.22,0h-.11l.07,0a3.31,3.31,0,0,1,.5.09,1,1,0,0,1,.29.13h0a1.39,1.39,0,0,1-.31,0l-.33-.1a.64.64,0,0,1,.13.18,3.16,3.16,0,0,0,.47.16,1,1,0,0,0,.25,0A.68.68,0,0,0,13,8.9Z" fill="#9a9a9a"/>
  <path d="M13.06,6.9a1.32,1.32,0,0,0-.4.07,4.11,4.11,0,0,0-.57.23.76.76,0,0,1-.11.17l.42-.16a1.26,1.26,0,0,1,.36-.06h0a1,1,0,0,1-.33.17,3.89,3.89,0,0,1-.56.14l-.09.06-.08,0h.11a3.25,3.25,0,0,0,1-.17A.91.91,0,0,0,13.37,7,.78.78,0,0,0,13.06,6.9Z" fill="#9a9a9a"/>
  <path d="M11.77,7l.16,0a4.37,4.37,0,0,1,.4-.32,1.33,1.33,0,0,1,.33-.18h0v0a1,1,0,0,1-.26.27L12.05,7h.08v.08a3.72,3.72,0,0,0,.7-.4,1,1,0,0,0,.43-.64h0a1.16,1.16,0,0,0-.66.25A4.35,4.35,0,0,0,11.77,7Z" fill="#9a9a9a"/>
  <path d="M12,6.37a5.67,5.67,0,0,0,.48-.67,1.11,1.11,0,0,1-.47.8.73.73,0,0,1-.08.29,4.42,4.42,0,0,0,.65-.62,1,1,0,0,0,.26-.82A.48.48,0,0,0,12.57,5a5.41,5.41,0,0,1-.67,1.17.46.46,0,0,1,.06.15Z" fill="#9a9a9a"/>
  <path d="M11.91,6.33a.29.29,0,0,0-.1-.19,2.22,2.22,0,0,1-.41.54l-.08.08a.36.36,0,0,1,.07.14l0,0a2.3,2.3,0,0,0,.28-.3v0a.61.61,0,0,1-.19.37l-.12.1a.55.55,0,0,1-.1.25,2.22,2.22,0,0,0,.42-.36A.69.69,0,0,0,11.91,6.33Z" fill="#9a9a9a"/>
  <path d="M12.08,7.08h-.14a.71.71,0,0,0-.37.1,2.94,2.94,0,0,0-.49.38l.1,0h0a2.63,2.63,0,0,1,.3-.21.56.56,0,0,1,.21-.08h0a.57.57,0,0,1-.16.15l-.3.16.07.06h0v0a2.85,2.85,0,0,0,.43-.21A.7.7,0,0,0,12.08,7.08Z" fill="#9a9a9a"/>
  <path d="M12.15,7.74a.63.63,0,0,0-.34-.1h-.13l-.34.09a.39.39,0,0,1,0,.11l0,0,.3-.08h.21a.55.55,0,0,1-.19.08l-.36,0L11.15,8l.12,0a2.58,2.58,0,0,0,.47,0A.65.65,0,0,0,12.15,7.74Z" fill="#9a9a9a"/>
  <path d="M11.68,8.44a.67.67,0,0,0,.43-.15.67.67,0,0,0-.45-.21h-.34a.34.34,0,0,1,.08.13h.14a.56.56,0,0,1,.2.05h0l-.16,0h-.19a.38.38,0,0,1-.09.09h0l.35,0Z" fill="#9a9a9a"/>
  <path d="M11.65,8.89a.55.55,0,0,0,.2,0,.62.62,0,0,0-.33-.33l-.29-.11-.11,0a.33.33,0,0,1,.07.1l.21.08a.54.54,0,0,1,.16.11h0a.54.54,0,0,1-.18,0l-.16-.08a.35.35,0,0,1,0,.14l.17.09A.65.65,0,0,0,11.65,8.89Z" fill="#9a9a9a"/>
  <path d="M11.42,9.24a.59.59,0,0,0-.19-.42l0,0-.14,0,.06.06a.52.52,0,0,1,.11.16v0h0a.53.53,0,0,1-.16-.11L11,8.83l-.1,0a.33.33,0,0,1,0,.12l.14.15a.59.59,0,0,0,.41.18Z" fill="#9a9a9a"/>
  <path d="M10.71,9.11l-.12,0,0,0,.05.11a.56.56,0,0,0,.33.29.56.56,0,0,0,0-.44l0,0a.34.34,0,0,1-.07.13.52.52,0,0,1,0,.13v0h0A.51.51,0,0,1,10.71,9.11Z" fill="#9a9a9a"/>
  <path d="M10.51,9.1l0-.11V9a.32.32,0,0,1-.06.15h0a.51.51,0,0,1,0,.18v0a.48.48,0,0,1-.07-.13l-.08,0h0a.52.52,0,0,0,.25.31A.53.53,0,0,0,10.51,9.1Z" fill="#9a9a9a"/>
  <path d="M10,9.29a.5.5,0,0,1,0-.15s0-.06,0-.1l-.05,0-.06,0v0a.51.51,0,0,0,.21.36.48.48,0,0,0,.09-.32l-.06-.06A.33.33,0,0,1,10,9l0,0a1.33,1.33,0,0,1,0,.13.5.5,0,0,1,0,.16v0Z" fill="#9a9a9a"/>
  <path d="M9.51,7a.41.41,0,0,0-.17.27.31.31,0,0,0,.09.21h0a.48.48,0,0,0,.1-.26.78.78,0,0,0,0-.09.7.7,0,0,1,0-.12h0Z" fill="#9a9a9a"/>
  <path d="M9.46,6.62l0,0c-.07.06-.19.15-.19.24a.34.34,0,0,0,.07.19h0c.11-.09.17-.17.17-.23a.6.6,0,0,0,0-.1.62.62,0,0,1,0-.11h0Z" fill="#9a9a9a"/>
  <path d="M8.9,6.89h0a.56.56,0,0,0-.16.33.35.35,0,0,0,.13.22h0A.45.45,0,0,0,9,7.17.38.38,0,0,0,8.94,7,.35.35,0,0,1,8.9,6.89Z" fill="#9a9a9a"/>
  <path d="M9.18,6.5h0A.43.43,0,0,0,9,6.84.29.29,0,0,0,9,7h0s.14-.11.14-.21a.46.46,0,0,0,0-.09.68.68,0,0,1,0-.14.25.25,0,0,1,0-.08Z" fill="#9a9a9a"/>
  <path d="M9.21,7h0l0,0A.27.27,0,0,0,9,7.23c0,.05,0,.11.11.23h0a.38.38,0,0,0,.12-.25A.48.48,0,0,0,9.21,7Z" fill="#9a9a9a"/>
  <path d="M9,7.34H9l0,.07a.33.33,0,0,0-.09.21A.31.31,0,0,0,9,7.82L9,7.91H9l0-.07a.38.38,0,0,0,.07-.21A.43.43,0,0,0,9,7.35Z" fill="#9a9a9a"/>
  <path d="M9.32,7.38h0l0,0a.42.42,0,0,0-.09.2.29.29,0,0,0,.09.21l.07.09h0a.77.77,0,0,1,0-.11.5.5,0,0,0,0-.18A.35.35,0,0,0,9.32,7.38Z" fill="#9a9a9a"/>
  <path d="M8.9,11.13a.43.43,0,0,1,0,.12.23.23,0,0,0,.15.06.23.23,0,0,0,.2-.09.51.51,0,0,1-.33-.31L8.86,11a.58.58,0,0,1,0,.1Z" fill="#9a9a9a"/>
  <path d="M10.44,10.77a.68.68,0,0,0-.2-.25l-.14,0H10a.69.69,0,0,1,.06.21h0a.5.5,0,0,0,.17,0A.65.65,0,0,0,10.44,10.77Z" fill="#9a9a9a"/>
  <path d="M10,10.52h.13a.39.39,0,0,0,.26-.15A1.15,1.15,0,0,1,10,10.3a.39.39,0,0,1-.18.05A.59.59,0,0,1,10,10.52Z" fill="#9a9a9a"/>
  <path d="M10.06,11.22a.59.59,0,0,0,0-.39h0l-.18,0a.47.47,0,0,1,0,.11.49.49,0,0,1,0,.14A.67.67,0,0,0,10.06,11.22Z" fill="#9a9a9a"/>
  <path d="M9.53,10.88a1.13,1.13,0,0,1,.11.31.38.38,0,0,0,.11-.28.48.48,0,0,0,0-.13.58.58,0,0,1-.18-.09A.39.39,0,0,1,9.53,10.88Z" fill="#9a9a9a"/>
  <path d="M9,10.88A.41.41,0,0,0,9,11a.63.63,0,0,1,.19-.27,1,1,0,0,0-.18-.2H9a.42.42,0,0,1,0,.08.67.67,0,0,1,0,.2Z" fill="#9a9a9a"/>
  <path d="M11.21,6.72a1,1,0,0,1-.4.46c-.16.12-.29.22-.29.4a.45.45,0,0,0,.06.19.79.79,0,0,1,.11.38c0,.24-.24.38-.48.38a.45.45,0,0,1-.43-.21H9.73v.79a.44.44,0,0,0,.17-.06.32.32,0,0,0,.14-.2h0a.33.33,0,0,0,.07.24.3.3,0,0,0,.11.08.29.29,0,0,0,.11-.09.33.33,0,0,0,.06-.24h0a.34.34,0,0,0,.16.2.3.3,0,0,0,.13,0h0a.3.3,0,0,0,.07-.13.32.32,0,0,0,0-.25h0a.32.32,0,0,0,.23.11h0a.3.3,0,0,0,.15,0h0a.29.29,0,0,0,0-.15A.31.31,0,0,0,11,8.4h.11a.28.28,0,0,0,.17,0,.31.31,0,0,0,.1-.12.3.3,0,0,0-.09-.13A.34.34,0,0,0,11,8h0a.37.37,0,0,0,.23-.16.34.34,0,0,0,0-.15.35.35,0,0,0-.13-.09l-.12,0a.41.41,0,0,0-.16,0h0a1.07,1.07,0,0,0,.33-.25A.54.54,0,0,0,11.36,7,.32.32,0,0,0,11.21,6.72Z" fill="#9a9a9a"/>
  <path d="M9.73,8.07h0v.19h0A.31.31,0,0,0,10,8.14a.24.24,0,0,0,0-.22A.39.39,0,0,1,9.76,8a.37.37,0,0,1-.33-.21.31.31,0,0,0,0,.25h.31Z" fill="#9a9a9a"/>
  <path d="M9.82,9.14l-.08,0V9.6a.48.48,0,0,0,.17-.22.65.65,0,0,1-.09-.23Z" fill="#9a9a9a"/>
  <path d="M9.73,10.28l.11,0a.39.39,0,0,0,.28-.13A1.33,1.33,0,0,1,9.73,10Z" fill="#9a9a9a"/>
  <path d="M10,10.78a.74.74,0,0,0-.18-.39l-.08,0a.26.26,0,0,1-.22.21.26.26,0,0,0,.07.1.75.75,0,0,0,.39.13Z" fill="#9a9a9a"/>
  <path d="M9.44,10.55H9.12a1.27,1.27,0,0,1,.29.44A.36.36,0,0,0,9.44,10.55Z" fill="#9a9a9a"/>
  <path d="M9.73,9.66v.28l.19.1a2.11,2.11,0,0,1-.09-.47Z" fill="#9a9a9a"/>
  <path d="M10.31,12.59A.82.82,0,0,0,9.89,12h0a.25.25,0,0,0,0-.33.43.43,0,0,1-.31.11,1.43,1.43,0,0,1-.74-.41l0,.07a4.28,4.28,0,0,0,.3.33l.15.13c.23.21.5.45.5.67a.39.39,0,0,1-.24.36A.42.42,0,0,0,9.9,13,.41.41,0,0,0,10.31,12.59Zm-.39-.91c0,.11-.08.21-.26.14C9.85,11.81,9.92,11.71,9.92,11.68ZM9.76,12a.72.72,0,0,1,.32.5.27.27,0,0,1-.13.24.47.47,0,0,0,0-.21A.83.83,0,0,0,9.76,12Z" fill="#9a9a9a"/>
  <path d="M9.61,13l-.07-.06,0,0h0a.34.34,0,0,0,.12-.08.51.51,0,0,0,0-.05,1.77,1.77,0,0,0-.6-1c-.09-.09-.17-.18-.23-.26l0,0A4.72,4.72,0,0,0,9,12a1.48,1.48,0,0,1,.18.61.35.35,0,0,1-.07.23.23.23,0,0,1-.18.07h-.1a.35.35,0,0,0,.06.12.34.34,0,0,0,.29.13A.45.45,0,0,0,9.61,13Zm-.31-.78a.77.77,0,0,1,.19.48.29.29,0,0,1-.19.28.38.38,0,0,0,.12-.29A1.36,1.36,0,0,0,9.29,12.18Z" fill="#9a9a9a"/>
  <path d="M9.4,6.09l-.13,0H9.15a.42.42,0,0,0,.2.14.8.8,0,0,1-.49.17.43.43,0,0,0,.21.06.49.49,0,0,0,.4-.22,1.19,1.19,0,0,0,0,.17,1,1,0,0,0,.23-.16.69.69,0,0,0-.1.21A1,1,0,0,0,9.8,6.3a1.31,1.31,0,0,0-.08.2A.8.8,0,0,0,10,6.33a1.81,1.81,0,0,1-.13.23,1,1,0,0,0,.22-.14,1,1,0,0,0,.32-.51,4.39,4.39,0,0,1-.54,0,3.24,3.24,0,0,1-.75-.06A.45.45,0,0,0,9.4,6.09Zm.44,0h0a2.16,2.16,0,0,0,.28,0h0a.18.18,0,0,1-.06.13h0a.49.49,0,0,0-.26-.09h0Z" fill="#9a9a9a"/>
  <path d="M9.24,6.49a.52.52,0,0,0,0,.26s.16-.16.25-.23V6.43l-.07,0-.08,0V6.42Z" fill="#9a9a9a"/>
  <path d="M9.68,6.46l-.11.06,0,0a.5.5,0,0,0,0,.19.79.79,0,0,1,0,.1,1,1,0,0,0,.29-.31l-.09,0-.1,0,0-.1Z" fill="#9a9a9a"/>
  <path d="M8.86,7.76h0l0,0a.46.46,0,0,0-.11.26H9A.31.31,0,0,0,9,8a.5.5,0,0,0-.14-.25Z" fill="#9a9a9a"/>
  <path d="M9,8.07h.32a.57.57,0,0,0-.19-.29h0A.53.53,0,0,0,9,8.07Z" fill="#9a9a9a"/>
  <path d="M12.62,8.06H12.5l-.6,0a.73.73,0,0,1,.2.13h.27a.88.88,0,0,1,.27.05h0a.73.73,0,0,1-.25,0h-.21l0,0L12,8.41h0a3.28,3.28,0,0,0,.59.07h0a.8.8,0,0,0,.58-.21A.9.9,0,0,0,12.62,8.06Z" fill="#9a9a9a"/>
  <path d="M13.36,7.65a.88.88,0,0,0-.51-.13h-.16a4.83,4.83,0,0,0-.6.11l.09.05,0,0,0,0,.19,0h.19l.16,0h0a.94.94,0,0,1-.33.1l-.3,0h0a.72.72,0,0,1-.23.15h.26a5.26,5.26,0,0,0,.61,0A.86.86,0,0,0,13.36,7.65Z" fill="#9a9a9a"/>
  <path d="M6.52,11.6a.08.08,0,0,0,.07,0,.09.09,0,0,0,0-.08h0a.08.08,0,0,0,0-.07.08.08,0,0,1,0,.06l-.05,0s0,.07,0,.1Z" fill="#9a9a9a"/>
  <path d="M8.2,9.31c0-.06,0-.08,0-.14a.06.06,0,0,1,.06-.06h.06l0,0A.23.23,0,0,0,8.14,9,.12.12,0,0,0,8,9.14c0,.1.09.13.09.22a.15.15,0,0,1,0,.1A.16.16,0,0,0,8.2,9.31Z" fill="#9a9a9a"/>
  <path d="M8.47,8.66a.18.18,0,0,1-.1-.13v0a.57.57,0,0,0-.29.23c.06,0,.05,0,.08.08s.05,0,.1,0a.11.11,0,0,1,.11,0,.12.12,0,0,0,.13,0v0a.23.23,0,0,0,0-.12A.45.45,0,0,1,8.47,8.66Z" fill="#9a9a9a"/>
  <path d="M8.17,10.22h.07a.23.23,0,0,1,0-.11.13.13,0,0,1,0,0H8.15A.1.1,0,0,1,8,10c0-.06,0-.07,0-.12s0-.07,0-.07a.11.11,0,0,1,0,.05C8,9.91,8,9.94,8,10A.19.19,0,0,0,8.17,10.22Z" fill="#9a9a9a"/>
  <path d="M8.64,9.24a.67.67,0,0,0-.07-.12l0,0a.14.14,0,0,1,0-.05h0l0,0a.33.33,0,0,0,0,.13.52.52,0,0,0,0,.16l.15,0H8.7a.15.15,0,0,0,0-.05Z" fill="#9a9a9a"/>
  <path d="M8.71,9.44v0H8.6l-.15,0h0v0a.56.56,0,0,1,0-.17.37.37,0,0,1,0-.15h0a.24.24,0,0,0-.18.23.58.58,0,0,0,0,.17.28.28,0,0,0-.07.14.11.11,0,0,0-.06.11.4.4,0,0,0,0,.16s0,.07,0,.07a.1.1,0,0,0,0,0,.08.08,0,0,0,0,0,.1.1,0,0,0,.07,0h.05a.06.06,0,0,0,0-.05.07.07,0,0,0,0,0,1.24,1.24,0,0,1,0-.21l0,0a.39.39,0,0,0,.24-.21l.19,0Z" fill="#9a9a9a"/>
  <path d="M8.68,9.51l-.14,0a.27.27,0,0,1-.05.08.1.1,0,0,1,0,0s0,.06,0,.08,0,0,0,.06a.58.58,0,0,1,.08.16h.07l-.07-.13s0-.07,0-.08A.3.3,0,0,0,8.68,9.51Z" fill="#9a9a9a"/>
  <path d="M8.84,9.35l.07,0v0a.68.68,0,0,0,0-.11A.55.55,0,0,0,8.76,9h0a1,1,0,0,1,.08.3v0S8.84,9.33,8.84,9.35Z" fill="#9a9a9a"/>
  <path d="M9.42,9.31l-.09-.1s0,0-.07,0l-.14,0a.35.35,0,0,0,0-.07c0-.12-.05-.13-.05-.23a.14.14,0,0,1,0-.11.33.33,0,0,0,0,.08.45.45,0,0,0,0,.07s0,0,0,0h0l0,0s0,0,.06-.07l0-.07a.21.21,0,0,0,0-.22s0-.05-.05-.07,0,0-.08,0-.08,0-.1,0,0,0-.09,0-.05,0-.09,0-.06,0-.07.06,0,0,0,.08,0,0,0,.08,0,0,0,.06l0,0a.58.58,0,0,1,.13.23.9.9,0,0,1,0,.11v.06h0l-.08,0v0h0v.08h.05A.35.35,0,0,0,9,9.62a.12.12,0,0,0,0,.09.87.87,0,0,0,0,.16l0,.05a.11.11,0,0,0,0,.07L9,10a.05.05,0,0,1,0,0s0,0,0,0a.19.19,0,0,0,0,0,.18.18,0,0,1,0-.06s0,0,0,0h0a0,0,0,0,0,0,0l0-.14L8.43,8.37s0,0,0,0,0,0,0,0h0l0-.11h0l0,.13a.06.06,0,0,0,0,0v0a.22.22,0,0,0,0,.12.15.15,0,0,0,.1.12h0a.41.41,0,0,0,0,.1.26.26,0,0,1,0,.14A.33.33,0,0,0,8.5,9c0,.08.05.08.1.13a1.89,1.89,0,0,1,.11.2s0,.09,0,.13.05.09.05.11,0,.05,0,.06,0,0,0,0l.06.18h0s0,0,0,0h0l0,0,0,0,0,.05h0v0h0s0,0,0,0,0,0,0,.05h0l-.05,0s0,0,0,0h0a.16.16,0,0,0,0,0s0-.06,0-.06h0l0,0a0,0,0,0,0,0,0h0l0,0h0l0,0a0,0,0,0,0,0,0s0,0,0,0,0,0,0,0,.06,0,.06,0h0v0a.61.61,0,0,0-.23,0c-.15,0-.29.09-.29.2a.23.23,0,0,0,.24.22c.15,0,.24-.05.24-.15a.1.1,0,0,0,0-.08.18.18,0,0,0-.1,0H8.5a.07.07,0,0,0,0,0,.06.06,0,0,0,0,0l0,0a.09.09,0,0,1,0-.06h0a.1.1,0,0,1,0-.06h.09a.15.15,0,0,1,.17.12.07.07,0,0,1,0,.05.1.1,0,0,1-.07.08c0,.07-.08.1-.13.11a.36.36,0,0,0,.15,0c.27,0,.36-.12.4-.23h0v0a.09.09,0,0,0,0,0h0a.13.13,0,0,1,0,.09.14.14,0,0,0,.08-.11l0,0h0s0,0,0,0a0,0,0,0,0,0,0c.08-.06.07-.09.09-.13a.1.1,0,0,0,0,0,0,0,0,0,0,0,0,0,0,0,0,0,0,0h0v0a.06.06,0,0,1,0,.05v0s0,0,0,0a.1.1,0,0,1,.06-.09c-.08,0-.11.1-.12.15h0s0-.08.06-.11a.06.06,0,0,0-.08,0l0,.07h0a.34.34,0,0,0,0-.12.71.71,0,0,1,0-.08.12.12,0,0,0,0-.11.66.66,0,0,0,0-.21l0,0s.14,0,.17-.11h0a.22.22,0,0,1,.09.12.06.06,0,0,0,0,.05s0,0,0,0a.13.13,0,0,0,.07.06s0,0,0,0a.09.09,0,0,0,0,0s0,0,0-.05,0,0,0,0A.09.09,0,0,0,9.42,9.31Z" fill="#9a9a9a"/>
  <path d="M8.62,8.43a0,0,0,0,0,0,0v0H8.49l.39,1.16H9s0,0,0,0l-.09-.06a.48.48,0,0,1,0-.11V9.39a.86.86,0,0,1,0-.12A.88.88,0,0,0,8.73,9v0h0a.09.09,0,0,1,0-.07.1.1,0,0,1,0-.08h0a.1.1,0,0,1,0-.07h0a.2.2,0,0,0-.07-.15v0a.11.11,0,0,0,.06-.07s0-.06,0-.08a.09.09,0,0,0-.13,0A.17.17,0,0,0,8.62,8.43Z" fill="#9a9a9a"/>
  <path d="M25.31,8.46V8.4h0a5.49,5.49,0,0,0-.82-1.27L19.52,1.64A4.81,4.81,0,0,0,18.35.73V.59h-.27A5.51,5.51,0,0,0,15.7-.06h-13A2.65,2.65,0,0,0,0,2.59V32.41a2.65,2.65,0,0,0,2.65,2.65H23.31A2.65,2.65,0,0,0,26,32.41V11A6.47,6.47,0,0,0,25.31,8.46Zm-7-6.15.2.2L23.49,8a3.28,3.28,0,0,1,.3.4H19.7A1.35,1.35,0,0,1,18.35,7Zm6.31,30.09a1.35,1.35,0,0,1-1.35,1.35H2.69a1.35,1.35,0,0,1-1.35-1.35V2.59A1.35,1.35,0,0,1,2.69,1.24h13A3.84,3.84,0,0,1,17,1.55V7A2.65,2.65,0,0,0,19.7,9.7h4.7A4.49,4.49,0,0,1,24.66,11Z" fill="#9a9a9a"/>
</svg>
